<?xml version="1.0" encoding="UTF-8"?>
<svg width="535px" height="126px" viewBox="0 0 535 126" version="1.1" xmlns="http://www.w3.org/2000/svg" xmlns:xlink="http://www.w3.org/1999/xlink">
    <!-- Generator: Sketch 48.1 (47250) - http://www.bohemiancoding.com/sketch -->
    <title>Combined Shape</title>
    <desc>Created with Sketch.</desc>
    <defs></defs>
    <g id="wave" stroke="none" stroke-width="1" fill="none" fill-rule="evenodd" transform="translate(-2.000000, -2.000000)">
        <g id="logo-copy" transform="translate(2.000000, 2.000000)" fill="#FFFFFF">
            <path d="M0,59 L3,59 L3,64 L0,64 L0,59 Z M4,59 L7,59 L7,64 L4,64 L4,59 Z M8,59 L11,59 L11,64 L8,64 L8,59 Z M12,58 L15,58 L15,65 L12,65 L12,58 Z M16,56 L19,56 L19,68 L16,68 L16,56 Z M20,57 L23,57 L23,67 L20,67 L20,57 Z M24,54 L27,54 L27,70 L24,70 L24,54 Z M28,47 L31,47 L31,78 L28,78 L28,47 Z M32,38 L35,38 L35,86 L32,86 L32,38 Z M36,35 L39,35 L39,90 L36,90 L36,35 Z M40,32 L43,32 L43,92 L40,92 L40,32 Z M44,31 L47,31 L47,93 L44,93 L44,31 Z M48,27 L51,27 L51,98 L48,98 L48,27 Z M52,32 L55,32 L55,94 L52,94 L52,32 Z M56,39 L59,39 L59,86 L56,86 L56,39 Z M60,41 L63,41 L63,84 L60,84 L60,41 Z M64,44 L67,44 L67,81 L64,81 L64,44 Z M68,39 L71,39 L71,87 L68,87 L68,39 Z M72,41 L75,41 L75,84 L72,84 L72,41 Z M76,37 L79,37 L79,88 L76,88 L76,37 Z M80,34 L83,34 L83,91 L80,91 L80,34 Z M84,32 L87,32 L87,94 L84,94 L84,32 Z M88,34 L91,34 L91,91 L88,91 L88,34 Z M92,38 L95,38 L95,87 L92,87 L92,38 Z M96,40 L99,40 L99,84 L96,84 L96,40 Z M100,36 L103,36 L103,89 L100,89 L100,36 Z M104,40 L107,40 L107,86 L104,86 L104,40 Z M108,43 L111,43 L111,81 L108,81 L108,43 Z M112,47 L115,47 L115,78 L112,78 L112,47 Z M116,50 L119,50 L119,75 L116,75 L116,50 Z M120,52 L123,52 L123,73 L120,73 L120,52 Z M124,55 L127,55 L127,71 L124,71 L124,55 Z M128,56 L131,56 L131,69 L128,69 L128,56 Z M132,57 L135,57 L135,68 L132,68 L132,57 Z M136,57 L139,57 L139,68 L136,68 L136,57 Z M140,46 L143,46 L143,79 L140,79 L140,46 Z M144,39 L147,39 L147,87 L144,87 L144,39 Z M148,41 L151,41 L151,84 L148,84 L148,41 Z M152,19 L155,19 L155,107 L152,107 L152,19 Z M156,0 L159,0 L159,126 L156,126 L156,0 Z M160,8 L163,8 L163,118 L160,118 L160,8 Z M164,17 L167,17 L167,109 L164,109 L164,17 Z M168,22 L171,22 L171,103 L168,103 L168,22 Z M172,25 L175,25 L175,99 L172,99 L172,25 Z M176,32 L179,32 L179,94 L176,94 L176,32 Z M180,41 L183,41 L183,85 L180,85 L180,41 Z M184,31 L187,31 L187,92 L184,92 L184,31 Z M188,34 L191,34 L191,88 L188,88 L188,34 Z M192,36 L195,36 L195,90 L192,90 L192,36 Z M196,31 L199,31 L199,93 L196,93 L196,31 Z M200,39 L203,39 L203,87 L200,87 L200,39 Z M204,44 L207,44 L207,80 L204,80 L204,44 Z M208,46 L211,46 L211,78 L208,78 L208,46 Z M212,34 L215,34 L215,91 L212,91 L212,34 Z M216,38 L219,38 L219,87 L216,87 L216,38 Z M220,43 L223,43 L223,81 L220,81 L220,43 Z M224,40 L227,40 L227,85 L224,85 L224,40 Z M228,38 L231,38 L231,89 L228,89 L228,38 Z M232,39 L235,39 L235,85 L232,85 L232,39 Z M236,28 L239,28 L239,98 L236,98 L236,28 Z M240,24 L243,24 L243,101 L240,101 L240,24 Z M244,35 L247,35 L247,90 L244,90 L244,35 Z M248,29 L251,29 L251,98 L248,98 L248,29 Z M252,29 L255,29 L255,98 L252,98 L252,29 Z M256,25 L259,25 L259,102 L256,102 L256,25 Z M260,32 L263,32 L263,90 L260,90 L260,32 Z M264,17 L267,17 L267,109 L264,109 L264,17 Z M268,19 L271,19 L271,106 L268,106 L268,19 Z M272,23 L275,23 L275,103 L272,103 L272,23 Z M276,26 L279,26 L279,98 L276,98 L276,26 Z M280,29 L283,29 L283,96 L280,96 L280,29 Z M284,29 L287,29 L287,96 L284,96 L284,29 Z M288,21 L291,21 L291,104 L288,104 L288,21 Z M292,19 L295,19 L295,105 L292,105 L292,19 Z M296,23 L299,23 L299,102 L296,102 L296,23 Z M300,21 L303,21 L303,106 L300,106 L300,21 Z M304,17 L307,17 L307,110 L304,110 L304,17 Z M308,15 L311,15 L311,113 L308,113 L308,15 Z M312,13 L315,13 L315,114 L312,114 L312,13 Z M316,17 L319,17 L319,109 L316,109 L316,17 Z M320,35 L323,35 L323,90 L320,90 L320,35 Z M324,32 L327,32 L327,94 L324,94 L324,32 Z M328,30 L331,30 L331,95 L328,95 L328,30 Z M332,34 L335,34 L335,92 L332,92 L332,34 Z M336,37 L339,37 L339,88 L336,88 L336,37 Z M340,37 L343,37 L343,88 L340,88 L340,37 Z M344,39 L347,39 L347,85 L344,85 L344,39 Z M348,42 L351,42 L351,83 L348,83 L348,42 Z M352,40 L355,40 L355,84 L352,84 L352,40 Z M356,35 L359,35 L359,87 L356,87 L356,35 Z M360,31 L363,31 L363,93 L360,93 L360,31 Z M364,26 L367,26 L367,100 L364,100 L364,26 Z M368,31 L371,31 L371,93 L368,93 L368,31 Z M372,34 L375,34 L375,90 L372,90 L372,34 Z M376,38 L379,38 L379,86 L376,86 L376,38 Z M380,41 L383,41 L383,81 L380,81 L380,41 Z M384,45 L387,45 L387,76 L384,76 L384,45 Z M388,24 L391,24 L391,100 L388,100 L388,24 Z M392,26 L395,26 L395,100 L392,100 L392,26 Z M396,27 L399,27 L399,98 L396,98 L396,27 Z M400,32 L403,32 L403,93 L400,93 L400,32 Z M404,33 L407,33 L407,91 L404,91 L404,33 Z M408,33 L411,33 L411,91 L408,91 L408,33 Z M412,34 L415,34 L415,89 L412,89 L412,34 Z M416,49 L419,49 L419,72 L416,72 L416,49 Z M420,43 L423,43 L423,78 L420,78 L420,43 Z M424,40 L427,40 L427,81 L424,81 L424,40 Z M428,37 L431,37 L431,84 L428,84 L428,37 Z M432,34 L435,34 L435,88 L432,88 L432,34 Z M436,39 L439,39 L439,84 L436,84 L436,39 Z M440,36 L443,36 L443,89 L440,89 L440,36 Z M444,32 L447,32 L447,93 L444,93 L444,32 Z M448,30 L451,30 L451,95 L448,95 L448,30 Z M452,32 L455,32 L455,93 L452,93 L452,32 Z M456,35 L459,35 L459,90 L456,90 L456,35 Z M460,38 L463,38 L463,87 L460,87 L460,38 Z M464,41 L467,41 L467,84 L464,84 L464,41 Z M468,44 L471,44 L471,81 L468,81 L468,44 Z M472,41 L475,41 L475,84 L472,84 L472,41 Z M476,51 L479,51 L479,74 L476,74 L476,51 Z M480,45 L483,45 L483,80 L480,80 L480,45 Z M484,39 L487,39 L487,86 L484,86 L484,39 Z M488,44 L491,44 L491,81 L488,81 L488,44 Z M492,47 L495,47 L495,78 L492,78 L492,47 Z M496,49 L499,49 L499,76 L496,76 L496,49 Z M500,52 L503,52 L503,73 L500,73 L500,52 Z M504,50 L507,50 L507,75 L504,75 L504,50 Z M508,53 L511,53 L511,72 L508,72 L508,53 Z M512,58 L515,58 L515,67 L512,67 L512,58 Z M516,57 L519,57 L519,68 L516,68 L516,57 Z M520,59 L523,59 L523,66 L520,66 L520,59 Z M524,58 L527,58 L527,67 L524,67 L524,58 Z M528,60 L531,60 L531,65 L528,65 L528,60 Z M532,61 L535,61 L535,64 L532,64 L532,61 Z" id="Combined-Shape"></path>
        </g>
    </g>
</svg>