<?xml version="1.0" encoding="UTF-8"?>
<svg width="40px" height="40px" viewBox="0 0 40 40" version="1.1" xmlns="http://www.w3.org/2000/svg" xmlns:xlink="http://www.w3.org/1999/xlink">
    <!-- Generator: Sketch 48.1 (47250) - http://www.bohemiancoding.com/sketch -->
    <title>Octicons-mark-github</title>
    <desc>Created with Sketch.</desc>
    <defs>
        <linearGradient x1="50%" y1="100%" x2="50%" y2="3.061617e-15%" id="linearGradient-1">
            <stop stop-color="#1A1356" offset="0%"></stop>
            <stop stop-color="#9A4AA7" offset="100%"></stop>
        </linearGradient>
    </defs>
    <g id="Page-1" stroke="none" stroke-width="1" fill="none" fill-rule="evenodd">
        <g id="Octicons-mark-github" transform="translate(2.000000, 1.000000)">
            <circle id="Oval" fill="#FFFFFF" cx="18" cy="19" r="17"></circle>
            <path d="M18,0 C8.05957031,0 0,8.26126126 0,18.4504505 C0,26.6036036 5.157,33.518018 12.3101719,35.9571892 C13.2099609,36.1261261 13.5384609,35.5562883 13.5384609,35.0698018 C13.5384609,34.6305946 13.5219727,33.1756757 13.5131836,31.6351351 C8.5078125,32.749982 7.44982031,29.4594595 7.44982031,29.4594595 C6.63025781,27.3288288 5.45139844,26.7612613 5.45139844,26.7612613 C3.81554297,25.6171171 5.5755,25.6396396 5.5755,25.6396396 C7.38274219,25.768 8.33421094,27.5405405 8.33421094,27.5405405 C9.94042969,30.3603604 12.5485664,29.545045 13.5724922,29.0720721 C13.7361094,27.8828829 14.2019297,27.0675676 14.7150703,26.6081081 C10.7193516,26.1419099 6.516,24.5585586 6.516,17.4887207 C6.516,15.4729369 7.21803516,13.8288288 8.3671875,12.5371532 C8.18370703,12.0686847 7.56407812,10.1914234 8.54514844,7.65203604 C8.54514844,7.65203604 10.0546875,7.15654054 13.4955703,9.54392793 C14.9303672,9.1329009 16.4695781,8.9301982 17.9999648,8.92342342 C19.5292617,8.9301982 21.0695273,9.13513514 22.5065742,9.54616216 C25.940918,7.15654054 27.4526367,7.65427027 27.4526367,7.65427027 C28.4370117,10.1959279 27.8173828,12.0709189 27.6328125,12.5371532 C28.7863594,13.8288288 29.4829102,15.472973 29.4829102,17.4887207 C29.4829102,24.5765766 25.2729492,26.1373694 21.262957,26.5945946 C21.911168,27.1666667 22.4846367,28.2882883 22.4846367,30.009009 C22.4846367,32.4752432 22.4604492,34.463964 22.4604492,35.0720721 C22.4604492,35.5630631 22.7878242,36.1373694 23.699707,35.9571892 C30.8474297,33.5135135 36,26.5990991 36,18.4504505 C36,8.26126126 27.9404297,0 18,0 Z" id="Shape" fill="url(#linearGradient-1)" fill-rule="nonzero"></path>
            <circle id="Oval-2" stroke="#FFFFFF" stroke-width="2" cx="18" cy="19" r="19"></circle>
        </g>
    </g>
</svg>