<?xml version="1.0" encoding="UTF-8"?>
<svg width="36px" height="36px" viewBox="0 0 36 36" version="1.1" xmlns="http://www.w3.org/2000/svg" xmlns:xlink="http://www.w3.org/1999/xlink">
    <!-- Generator: Sketch 48.1 (47250) - http://www.bohemiancoding.com/sketch -->
    <title>invision</title>
    <desc>Created with Sketch.</desc>
    <defs></defs>
    <g id="Page-1" stroke="none" stroke-width="1" fill="none" fill-rule="evenodd">
        <g id="invision">
            <rect id="Rectangle" stroke="#FFFFFF" x="0.5" y="0.5" width="35" height="35" rx="3"></rect>
            <path d="M12.0311719,11.3266406 C13.2278906,11.3266406 14.2304063,10.3886719 14.2304063,9.15932813 C14.2304063,7.93082812 13.2278906,6.993 12.0311719,6.993 C10.8344531,6.993 9.83221875,7.93082812 9.83221875,9.15932813 C9.83221875,10.3885312 10.8344531,11.3266406 12.0311719,11.3266406 M7.47126562,22.9310156 C7.34203125,23.4808594 7.27720312,24.0745781 7.27720312,24.5588906 C7.27720312,26.4673125 8.3120625,27.7342031 10.5112969,27.7342031 C12.3352031,27.7342031 13.813875,26.6511094 14.8785469,24.9021562 L14.2284375,27.5111719 L17.8502344,27.5111719 L19.9202344,19.2088125 C20.4377344,17.10675 21.44025,16.0156406 22.9604063,16.0156406 C24.1569844,16.0156406 24.90075,16.7598281 24.90075,17.9883281 C24.90075,18.34425 24.8684063,18.7319531 24.7390313,19.1525625 L23.6716875,22.9687031 C23.5099688,23.5185469 23.4455625,24.0686719 23.4455625,24.58575 C23.4455625,26.3974219 24.5124844,27.7225313 26.7440625,27.7225313 C28.6522031,27.7225313 30.1720781,26.4941719 31.0130156,23.5510313 L29.5901719,23.00175 C28.8786094,24.9734531 28.2640781,25.3299375 27.7789219,25.3299375 C27.2937656,25.3299375 27.0350156,25.0067813 27.0350156,24.3603281 C27.0350156,24.0692344 27.0999844,23.7462188 27.1967344,23.35725 L28.231875,19.6394063 C28.4904844,18.7664063 28.5876563,17.9922656 28.5876563,17.2809844 C28.5876563,14.4997031 26.9057813,13.0481719 24.8684063,13.0481719 C22.9604063,13.0481719 21.0197813,14.7692813 20.04975,16.5806719 L20.7610313,13.3294219 L15.2310938,13.3294219 L14.4548438,16.1931094 L17.0422031,16.1931094 L15.4489219,22.5718594 C14.1977813,25.3531406 11.8995469,25.3982813 11.611125,25.3337344 C11.1375,25.2268594 10.8345938,25.047 10.8345938,24.431625 C10.8345938,24.0765469 10.8992813,23.5665 11.061,22.9515469 L13.4867813,13.3294219 L7.34203125,13.3294219 L6.56578125,16.1931094 L9.12051562,16.1931094 L7.47140625,22.9310156" id="Shape" fill="#FFFFFF" fill-rule="nonzero"></path>
        </g>
    </g>
</svg>