<?xml version="1.0" encoding="UTF-8"?>
<svg width="32px" height="35px" viewBox="0 0 32 35" version="1.1" xmlns="http://www.w3.org/2000/svg" xmlns:xlink="http://www.w3.org/1999/xlink">
    <!-- Generator: Sketch 48.1 (47250) - http://www.bohemiancoding.com/sketch -->
    <title>mind</title>
    <desc>Created with Sketch.</desc>
    <defs></defs>
    <g id="Page-1" stroke="none" stroke-width="1" fill="none" fill-rule="evenodd">
        <g id="mind" transform="translate(1.000000, 1.000000)" fill-rule="nonzero" stroke="#FFFFFF">
            <path d="M11.774,8.441 C9.584,6.379 5.655,4.181 0.438,2.359 C0.098,2.24 -0.008,2.493 0.03,2.656 C0.436,4.424 0.675,5.879 0.822,7.294 C0.969,8.71 1.023,10.086 1.061,11.698 C1.083,12.686 1.093,13.743 1.126,14.947 C1.258,19.807 3.642,22.775 4.181,23.297 C6.827,26.531 10.386,27.692 12.576,30.517 C13.969,32.459 14.052,33.404 14.141,33.714 L14.141,33.71 C14.126,33.595 14.07,33.12 14.009,32.57 C13.843,31.374 13.653,30.461 13.328,29.53 C12.704,27.747 11.84,26.287 10.939,24.515 C9.284,21.259 6.843,15.677 11.774,8.442 L11.774,8.441 Z" id="Shape"></path>
            <path d="M14.01,32.571 C13.843,31.374 13.653,30.461 13.328,29.531 C12.704,27.747 11.84,26.287 10.939,24.515 C9.284,21.259 6.843,15.677 11.774,8.442 C12.918,6.694 15.089,3.914 16.497,0.454 C16.542,0.344 16.657,0.164 16.86,0.294 C18.145,1.11 22.744,6.209 22.742,13.32 C22.737,13.325 19.05,14.874 16.742,18.218 C15.9656241,19.2921824 15.3666747,20.484004 14.968,21.748 C14.546,23.074 14.303,24.563 14.268,26.255 C14.266,26.352 14.222,29.605 14.188,31.631 C14.174,32.42 14.163,32.922 14.155,33.236 L14.142,33.716 C14.0950575,33.3346409 14.0507231,32.9529653 14.009,32.571 L14.01,32.571 Z" id="e"></path>
            <path d="M24.318,23.298 C21.666,26.471 18.089,27.668 15.894,30.517 C14.137,32.969 14.467,33.835 14.236,33.833 C14.188,33.833 14.165,33.795 14.141,33.713 C14.141,33.607 14.159,33.173 14.186,31.631 C14.221,29.591 14.267,26.308 14.268,26.255 C14.338,22.872 15.242,20.297 16.742,18.218 C19.05,14.874 22.737,13.325 22.737,13.325 L22.849,13.27 C25.78,11.876 29.031,11.36 29.645,11.247 C29.88,11.197 30.006,11.312 29.965,11.553 C29.604346,13.5885851 28.9748383,15.5672302 28.093,17.437 C27.169,19.407 25.929,21.371 24.318,23.297 L24.318,23.298 Z" id="h"></path>
        </g>
    </g>
</svg>