<?xml version="1.0" encoding="utf-8"?>
<!-- Generator: Adobe Illustrator 15.0.0, SVG Export Plug-In . SVG Version: 6.00 Build 0)  -->
<!DOCTYPE svg PUBLIC "-//W3C//DTD SVG 1.1//EN" "http://www.w3.org/Graphics/SVG/1.1/DTD/svg11.dtd">
<svg width="40px" height="40px" viewBox="0 0 30 36" xmlns="http://www.w3.org/2000/svg" xmlns:xlink="http://www.w3.org/1999/xlink"><title>Triad</title><defs><path d="M22.742 13.072C22.745 5.961 18.146.861 16.861.045c-.204-.13-.319.05-.364.16-1.408 3.46-3.579 6.24-4.723 7.988C9.584 6.129 5.655 3.933.438 2.11c-.34-.119-.446.134-.408.297.813 3.536.956 5.818 1.03 9.042.023.988.033 2.045.066 3.249.132 4.86 2.516 7.828 3.055 8.35 2.646 3.234 6.205 4.395 8.395 7.22 1.76 2.453 1.43 3.314 1.66 3.316.23.002-.099-.864 1.658-3.316 2.195-2.85 5.772-4.046 8.424-7.22 3.221-3.853 4.963-7.86 5.646-11.744.042-.241-.084-.355-.319-.306-.622.115-3.944.642-6.903 2.074z" id="a"/><linearGradient x1="50%" y1=".788%" x2="50%" y2="100%" id="b"><stop stop-color="#5A5AD2" offset="0%"/><stop stop-color="#756AD5" offset="25.661%"/><stop stop-color="#B991DE" offset="85.145%"/><stop stop-color="#D2A0E1" offset="100%"/></linearGradient><linearGradient x1="103.584%" y1="13.099%" x2="0%" y2="100%" id="f"><stop stop-color="#05A5D2" offset="0%"/><stop stop-color="#20B3D4" offset="16.267%"/><stop stop-color="#5AD2D7" offset="40.562%"/><stop stop-color="#90E7E6" offset="71.12%"/><stop stop-color="#B4F5F0" offset="100%"/></linearGradient><path d="M14.01 32.322c-.167-1.197-.357-2.11-.682-3.04-.624-1.784-1.488-3.244-2.389-5.016-1.655-3.256-4.096-8.838.835-16.073 1.144-1.748 3.315-4.528 4.723-7.988.045-.11.16-.29.363-.16 1.285.816 5.884 5.915 5.882 13.026-.005.005-3.692 1.554-6 4.898a12.387 12.387 0 0 0-1.774 3.53c-.422 1.326-.665 2.815-.7 4.507-.002.097-.046 3.35-.08 5.376-.014.789-.025 1.291-.033 1.605l-.013.48a84.292 84.292 0 0 1-.133-1.145z" id="e"/><filter x="-54%" y="-19.4%" width="193.6%" height="138.8%" filterUnits="objectBoundingBox" id="d"><feOffset dx="-1" in="SourceAlpha" result="shadowOffsetOuter1"/><feGaussianBlur stdDeviation="2" in="shadowOffsetOuter1" result="shadowBlurOuter1"/><feColorMatrix values="0 0 0 0 0 0 0 0 0 0 0 0 0 0 0 0 0 0 0.31 0" in="shadowBlurOuter1"/></filter><linearGradient x1="100%" y1="28.941%" x2="-12.001%" y2="68.628%" id="i"><stop stop-color="#FF5F69" offset="0%"/><stop stop-color="#FF5F69" offset="16.797%"/><stop stop-color="#FFA866" offset="66.332%"/><stop stop-color="#FFD764" offset="100%"/></linearGradient><path d="M24.318 23.049c-2.652 3.173-6.229 4.37-8.424 7.219-1.757 2.452-1.427 3.318-1.658 3.316-.048 0-.071-.038-.095-.12 0-.106.018-.54.045-2.082.035-2.04.081-5.323.082-5.376.07-3.383.974-5.958 2.474-8.037 2.308-3.344 5.995-4.893 5.995-4.893l.112-.055c2.931-1.394 6.182-1.91 6.796-2.023.235-.05.361.065.32.306a23.339 23.339 0 0 1-1.872 5.884c-.924 1.97-2.164 3.934-3.775 5.86z" id="h"/><filter x="-47.4%" y="-28.8%" width="182.1%" height="157.5%" filterUnits="objectBoundingBox" id="g"><feOffset dx="-1" in="SourceAlpha" result="shadowOffsetOuter1"/><feGaussianBlur stdDeviation="2" in="shadowOffsetOuter1" result="shadowBlurOuter1"/><feComposite in="shadowBlurOuter1" in2="SourceAlpha" operator="out" result="shadowBlurOuter1"/><feColorMatrix values="0 0 0 0 0 0 0 0 0 0 0 0 0 0 0 0 0 0 0.31 0" in="shadowBlurOuter1"/></filter></defs><g transform="translate(0 .249)" fill="none" fill-rule="evenodd"><mask id="c" fill="#fff"><use xlink:href="#a"/></mask><path d="M11.774 8.192C9.584 6.13 5.655 3.932.438 2.11c-.34-.119-.446.134-.408.297.406 1.768.645 3.223.792 4.638.147 1.416.201 2.792.239 4.404.022.988.032 2.045.065 3.249.132 4.86 2.516 7.828 3.055 8.35 2.646 3.234 6.205 4.395 8.395 7.22 1.393 1.942 1.476 2.887 1.565 3.197v-.004c-.015-.115-.071-.59-.132-1.14-.166-1.196-.356-2.109-.681-3.04-.624-1.783-1.488-3.243-2.389-5.015-1.655-3.256-4.096-8.838.835-16.073z" fill="url(#b)" mask="url(#c)"/><g mask="url(#c)"><use fill="#000" filter="url(#d)" xlink:href="#e"/><use fill="url(#f)" xlink:href="#e"/></g><g mask="url(#c)"><use fill="#000" filter="url(#g)" xlink:href="#h"/><use fill="url(#i)" xlink:href="#h"/></g></g></svg>
