<?xml version="1.0" encoding="UTF-8"?>
<svg width="34px" height="34px" viewBox="0 0 34 34" version="1.1" xmlns="http://www.w3.org/2000/svg" xmlns:xlink="http://www.w3.org/1999/xlink">
    <!-- Generator: Sketch 48.1 (47250) - http://www.bohemiancoding.com/sketch -->
    <title>ps</title>
    <desc>Created with Sketch.</desc>
    <defs></defs>
    <g id="Page-1" stroke="none" stroke-width="1" fill="none" fill-rule="evenodd">
        <g id="ps" transform="translate(1.000000, 1.000000)">
            <rect id="Rectangle-path" stroke="#FFFFFF" x="-0.5" y="-0.5" width="33" height="33"></rect>
            <path d="M15.365,16.789 C14.539,17.597 13.393,18 11.928,18 L10.014,18 L10.014,23 L7.143,23 L7.143,8.781 L11.987,8.781 C13.393,8.781 14.515,9.218 15.351,10.09 C16.187,10.962 16.606,12.095 16.606,13.488 C16.606,14.881 16.192,15.981 15.365,16.789 Z M12.016,11.174 L10.014,11.174 L10.014,15.608 L11.987,15.608 C12.534,15.608 12.957,15.429 13.257,15.071 C13.557,14.713 13.706,14.192 13.706,13.508 C13.706,12.798 13.553,12.234 13.247,11.814 C12.941,11.394 12.53,11.181 12.016,11.174 Z" id="Combined-Shape" fill="#FFFFFF"></path>
            <path d="M24.682,22.336 C23.973,22.909 23.041,23.195 21.889,23.195 C21.114,23.195 20.43,23.044 19.838,22.741 C19.246,22.438 18.781,22.016 18.446,21.476 C18.111,20.936 17.943,20.353 17.943,19.728 L20.57,19.728 C20.584,20.209 20.695,20.571 20.907,20.812 C21.119,21.053 21.465,21.173 21.947,21.173 C22.689,21.173 23.06,20.838 23.06,20.167 C23.06,19.933 22.948,19.716 22.723,19.518 C22.498,19.32 22,19.052 21.225,18.713 C20.086,18.251 19.303,17.773 18.876,17.277 C18.449,16.781 18.236,16.167 18.236,15.431 C18.236,14.506 18.57,13.743 19.237,13.141 C19.904,12.539 20.789,12.238 21.888,12.238 C23.046,12.238 23.974,12.538 24.671,13.136 C25.368,13.734 25.716,14.539 25.716,15.548 L22.952,15.548 C22.952,14.689 22.595,14.259 21.878,14.259 C21.585,14.259 21.345,14.35 21.155,14.532 C20.965,14.714 20.872,14.969 20.872,15.294 C20.872,15.528 20.976,15.735 21.185,15.914 C21.394,16.093 21.884,16.349 22.66,16.681 C23.787,17.098 24.582,17.562 25.048,18.073 C25.514,18.584 25.746,19.247 25.746,20.06 C25.746,21.005 25.391,21.763 24.682,22.336 Z" id="Shape-path" fill="#FFFFFF"></path>
        </g>
    </g>
</svg>