<?xml version="1.0" encoding="UTF-8"?>
<svg width="36px" height="36px" viewBox="0 0 36 36" version="1.1" xmlns="http://www.w3.org/2000/svg" xmlns:xlink="http://www.w3.org/1999/xlink">
    <!-- Generator: Sketch 48.1 (47250) - http://www.bohemiancoding.com/sketch -->
    <title>ps</title>
    <desc>Created with Sketch.</desc>
    <defs>
        <rect id="path-1" x="0" y="0" width="36" height="36"></rect>
    </defs>
    <g id="Page-1" stroke="none" stroke-width="1" fill="none" fill-rule="evenodd">
        <g id="ps">
            <g id="Rectangle">
                <use fill="#03A9F4" fill-rule="evenodd" xlink:href="#path-1"></use>
                <rect stroke="#03A9F4" stroke-width="4" x="2" y="2" width="32" height="32"></rect>
            </g>
            <g id="Group" transform="translate(3.000000, 3.000000)" fill="#020F16" fill-rule="nonzero">
                <path d="M11.016,10.174 L9.014,10.174 L9.014,14.608 L10.987,14.608 C11.534,14.608 11.957,14.429 12.257,14.071 C12.557,13.713 12.706,13.192 12.706,12.508 C12.706,11.798 12.553,11.234 12.247,10.814 C11.941,10.394 11.53,10.181 11.016,10.174 Z" id="Shape"></path>
                <path d="M0,0 L0,30 L30,30 L30,0 L0,0 Z M14.365,15.789 C13.539,16.597 12.393,17 10.928,17 L9.014,17 L9.014,22 L6.143,22 L6.143,7.781 L10.987,7.781 C12.393,7.781 13.515,8.218 14.351,9.09 C15.187,9.962 15.606,11.095 15.606,12.488 C15.606,13.881 15.192,14.981 14.365,15.789 Z M23.682,21.336 C22.973,21.909 22.041,22.195 20.889,22.195 C20.114,22.195 19.43,22.044 18.838,21.741 C18.246,21.438 17.781,21.016 17.446,20.476 C17.111,19.936 16.943,19.353 16.943,18.728 L19.57,18.728 C19.584,19.209 19.695,19.571 19.907,19.812 C20.119,20.053 20.465,20.173 20.947,20.173 C21.689,20.173 22.06,19.838 22.06,19.167 C22.06,18.933 21.948,18.716 21.723,18.518 C21.498,18.32 21,18.052 20.225,17.713 C19.086,17.251 18.303,16.773 17.876,16.277 C17.449,15.781 17.236,15.167 17.236,14.431 C17.236,13.506 17.57,12.743 18.237,12.141 C18.904,11.539 19.789,11.238 20.888,11.238 C22.046,11.238 22.974,11.538 23.671,12.136 C24.368,12.734 24.716,13.539 24.716,14.548 L21.952,14.548 C21.952,13.689 21.595,13.259 20.878,13.259 C20.585,13.259 20.345,13.35 20.155,13.532 C19.965,13.714 19.872,13.969 19.872,14.294 C19.872,14.528 19.976,14.735 20.185,14.914 C20.394,15.093 20.884,15.349 21.66,15.681 C22.787,16.098 23.582,16.562 24.048,17.073 C24.514,17.584 24.746,18.247 24.746,19.06 C24.746,20.005 24.391,20.763 23.682,21.336 Z" id="Shape"></path>
            </g>
        </g>
    </g>
</svg>