<?xml version="1.0" encoding="UTF-8"?>
<svg width="36px" height="35px" viewBox="0 0 36 35" version="1.1" xmlns="http://www.w3.org/2000/svg" xmlns:xlink="http://www.w3.org/1999/xlink">
    <!-- Generator: Sketch 50.2 (55047) - http://www.bohemiancoding.com/sketch -->
    <title>icons8-unity-5</title>
    <desc>Created with Sketch.</desc>
    <defs></defs>
    <g id="Page-1" stroke="none" stroke-width="1" fill="none" fill-rule="evenodd" stroke-linecap="round" stroke-linejoin="round">
        <g id="icons8-unity-5" transform="translate(0.000000, 1.000000)" stroke="#FFFFFF">
            <path d="M17.0415,32.68875 L1.407,21.32925 C0.8355,20.91375 0.59625,20.178 0.8145,19.506 L6.786,1.1265 C7.005,0.45525 7.63125,0 8.337,0 L27.66225,0 C28.36875,0 28.995,0.45525 29.21325,1.1265 L35.18475,19.506 C35.403,20.178 35.16375,20.91375 34.59225,21.32925 L18.9585,32.68875 C18.387,33.1035 17.613,33.1035 17.0415,32.68875 Z" id="Shape"></path>
            <path d="M13.92525,6 L22.68675,6 C22.992,6 23.23875,6.2475 23.23875,6.552 L23.23875,9.19575 C23.23875,9.501 22.99125,9.74775 22.68675,9.74775 L17.268,9.74775 C17.076,9.74775 16.9125,9.8895 16.88625,10.08 L16.66425,11.6355 C16.6155,12.04125 17.0055,12.3435 17.39475,12.21975 C17.76075,12.1035 18.23775,12.006 18.81225,12.006 C21.141,12.006 24.75,13.20975 24.75,17.61225 C24.75,22.01475 21.1065,24.37575 18,24.37575 C13.335,24.37575 11.82,21.2895 11.3685,19.85775 C11.256,19.50225 11.52525,19.14375 11.898,19.14375 L15.52875,19.14375 C15.69825,19.14375 15.858,19.218 15.96,19.353 C16.2165,19.692 16.83225,20.32425 17.85975,20.32425 C19.26375,20.32425 20.31675,19.08525 20.31675,17.90475 C20.31675,16.72425 19.3275,15.5385 17.73225,15.5385 C16.62375,15.5385 15.993,16.278 15.711,16.7295 C15.585,16.9305 15.34275,17.022 15.11325,16.96425 L12.25875,16.23825 C11.9805,16.16775 11.80275,15.8955 11.85,15.612 L13.38,6.4605 C13.425,6.195 13.65525,6 13.92525,6 Z" id="Shape"></path>
        </g>
    </g>
</svg>