<?xml version="1.0" encoding="UTF-8"?>
<svg width="46px" height="36px" viewBox="0 0 46 36" version="1.1" xmlns="http://www.w3.org/2000/svg" xmlns:xlink="http://www.w3.org/1999/xlink">
    <!-- Generator: Sketch 48.1 (47250) - http://www.bohemiancoding.com/sketch -->
    <title>Group</title>
    <desc>Created with Sketch.</desc>
    <defs></defs>
    <g id="Page-1" stroke="none" stroke-width="1" fill="none" fill-rule="evenodd">
        <g id="Group">
            <ellipse id="Oval" fill="#FFD939" transform="translate(25.984111, 18.460876) rotate(-21.000000) translate(-25.984111, -18.460876) " cx="25.9841107" cy="18.4608756" rx="19.8513882" ry="9.05275742"></ellipse>
            <path d="M24.4106667,31.5457627 C24.288,31.179661 24.1653333,30.7525424 24.0426667,30.3864407 C23.0613333,27.2135593 22.3253333,22.8813559 21.896,18.3050847 C21.2213333,9.88474576 21.896,0.793220339 24.5333333,0.549152542 C26.0053333,0.427118644 27.1706667,3.23389831 27.9066667,5.55254237 C28.888,8.72542373 29.624,13.0576271 30.0533333,17.6338983 C30.728,26.0542373 30.0533333,35.1457627 27.416,35.3898305 C26.128,35.4508475 25.0853333,33.559322 24.4106667,31.5457627 Z M26.9253333,4.57627119 C26.0053333,2.01355932 25.0853333,1.09830508 24.5333333,1.15932203 C22.8773333,1.28135593 21.6506667,8.35932203 22.5093333,18.2440678 C22.8773333,22.820339 23.6133333,27.0305085 24.5946667,30.2033898 C25.6373333,33.6813559 26.7413333,34.840678 27.3546667,34.779661 C29.0106667,34.6576271 30.2373333,27.579661 29.3786667,17.6949153 C29.0106667,13.1186441 28.2746667,8.90847458 27.2933333,5.73559322 C27.1706667,5.30847458 27.048,4.88135593 26.9253333,4.57627119 Z" id="Shape" fill="#FD6D0B" fill-rule="nonzero"></path>
            <path d="M16.0693333,8.42033898 C15.3333333,6.40677966 14.904,4.27118644 15.9466667,3.53898305 C18.0933333,2.01355932 24.472,8.60338983 29.3173333,15.559322 C31.9546667,19.3423729 34.1013333,23.1254237 35.3893333,26.2372881 C36.3093333,28.4949153 37.2293333,31.4237288 36.0026667,32.2169492 C33.856,33.7423729 27.4773333,27.1525424 22.632,20.1966102 C19.9333333,16.4745763 17.7866667,12.6915254 16.4986667,9.57966102 C16.3146667,9.21355932 16.192,8.84745763 16.0693333,8.42033898 Z M35.2666667,27.640678 C35.144,27.2745763 35.0213333,26.9084746 34.8373333,26.4813559 C33.5493333,23.4305085 31.4026667,19.7084746 28.8266667,15.9254237 C23.1226667,7.74915254 17.664,3.11186441 16.3146667,4.02711864 C15.824,4.39322034 15.7626667,5.97966102 17.112,9.27457627 C18.4,12.3254237 20.5466667,16.0474576 23.1226667,19.8305085 C28.8266667,28.0067797 34.2853333,32.6440678 35.6346667,31.7288136 C36.064,31.4847458 36.1866667,30.2033898 35.2666667,27.640678 Z" id="Shape" fill="#FD6D0B" fill-rule="nonzero"></path>
            <polygon id="Shape" fill="#FFBE22" fill-rule="nonzero" points="15.824 21.6610169 5.02933333 25.5050847 4.84533333 32.4610169 11.408 30.0813559 18.032 27.7016949"></polygon>
            <polygon id="Shape" fill="#F89920" fill-rule="nonzero" points="13.616 15.559322 6.992 17.8779661 0.429333333 20.2576271 5.02933333 25.5050847 15.824 21.6610169"></polygon>
            <path d="M45.264,11.1050847 C46.736,15.0711864 39.376,21.3559322 28.888,25.1389831 C18.4,28.8610169 8.70933333,28.6779661 7.23733333,24.7118644 C9.32266667,30.5694915 19.5653333,32.2779661 30.0533333,28.4949153 C40.6026667,24.7118644 47.4106667,16.9627119 45.264,11.1050847 Z" id="Shape" fill="#F0670B" fill-rule="nonzero"></path>
            <path d="M28.888,25.1389831 C39.376,21.3559322 46.736,15.1322034 45.264,11.1050847 L7.23733333,24.7118644 C8.70933333,28.6779661 18.4,28.8610169 28.888,25.1389831 Z" id="Shape" fill="#F89920" fill-rule="nonzero"></path>
            <path d="M23.6746667,10.6779661 C34.1626667,6.89491525 43.8533333,7.13898305 45.3253333,11.1050847 C43.24,5.24745763 32.9973333,3.53898305 22.5093333,7.3220339 C12.0213333,11.1050847 5.152,18.8542373 7.23733333,24.7118644 C5.82666667,20.6847458 13.1253333,14.4 23.6746667,10.6779661 Z" id="Shape" fill="#FFD00E" fill-rule="nonzero"></path>
            <path d="M23.6746667,10.6779661 C13.1866667,14.4610169 5.82666667,20.6847458 7.29866667,24.7118644 L45.3253333,11.1050847 C43.8533333,7.0779661 34.1626667,6.89491525 23.6746667,10.6779661 Z" id="Shape" fill="#FFBE22" fill-rule="nonzero"></path>
            <path d="M24.5946667,30.1423729 C23.7973333,27.5186441 23.1226667,24.1016949 22.6933333,20.379661 C27.5386667,27.2745763 33.7946667,33.7423729 35.9413333,32.2779661 L35.5733333,31.7898305 C34.224,32.7050847 28.7653333,28.0677966 23.0613333,19.8915254 C22.8773333,19.6474576 22.6933333,19.4033898 22.5093333,19.159322 C22.5093333,18.8542373 22.448,18.5491525 22.448,18.2440678 C21.6506667,8.35932203 22.8773333,1.28135593 24.472,1.15932203 L24.4106667,0.549152542 C21.7733333,0.793220339 21.0986667,9.70169492 21.7733333,18.1220339 C19.688,15.0101695 18.032,11.959322 16.9893333,9.39661017 C15.5786667,6.04067797 15.64,4.45423729 16.192,4.14915254 L15.824,3.66101695 C14.7813333,4.39322034 15.272,6.52881356 15.9466667,8.54237288 C16.0693333,8.90847458 16.2533333,9.33559322 16.376,9.70169492 C17.5413333,12.5694915 19.504,15.9864407 21.8346667,19.4644068 C22.264,23.6745763 22.9386667,27.5186441 23.8586667,30.4474576 C23.9813333,30.8135593 24.104,31.240678 24.2266667,31.6067797 C24.9626667,33.620339 26.0053333,35.5118644 27.232,35.4508475 L27.1706667,34.840678 C26.68,34.779661 25.6373333,33.620339 24.5946667,30.1423729 Z" id="Shape" fill="#FD6D0B" fill-rule="nonzero"></path>
        </g>
    </g>
</svg>